<?xml version="1.0" encoding="UTF-8"?>
<svg width="100mm" height="100mm" version="1.1" viewBox="0 0 24 24" xmlns="http://www.w3.org/2000/svg">
<rect width="24" height="24"/>
<path d="m17.1 9.0251h-0.84997v-1.6999c0-2.3459-1.9039-4.2499-4.2499-4.2499-2.3459 0-4.2498 1.9039-4.2498 4.2499v1.6999h-0.84997c-0.93497 0-1.6999 0.76497-1.6999 1.6999v8.4997c0 0.93497 0.76497 1.6999 1.6999 1.6999h10.2c0.93497 0 1.6999-0.76497 1.6999-1.6999v-8.4997c0-0.93497-0.76498-1.6999-1.6999-1.6999zm-5.0998 7.6497c-0.93497 0-1.6999-0.76497-1.6999-1.6999 0-0.93497 0.76497-1.6999 1.6999-1.6999 0.93497 0 1.6999 0.76497 1.6999 1.6999 0 0.93497-0.76497 1.6999-1.6999 1.6999zm2.6349-7.6497h-5.2698v-1.6999c0-1.4534 1.1815-2.6349 2.6349-2.6349 1.4535 0 2.6349 1.1815 2.6349 2.6349z" fill="#adff2f" stroke="#adff2f" stroke-width=".66546"/>
</svg>
